<?xml version="1.0"?>
<svg xmlns="http://www.w3.org/2000/svg" xmlns:xlink="http://www.w3.org/1999/xlink" xmlns:svgjs="http://svgjs.com/svgjs" version="1.1" width="512" height="512" x="0" y="0" viewBox="0 0 512 512" style="enable-background:new 0 0 512 512" xml:space="preserve" class=""><rect width="512" height="512" fill="#ffff00" shape="square"/><g transform="matrix(0.7,0,0,0.7,76.80000000000001,76.80000000000001)"><path xmlns="http://www.w3.org/2000/svg" d="m336 248v48a32 32 0 0 0 -32 32v144a16 16 0 0 0 16 16h64a16 16 0 0 0 16-16v-144a32 32 0 0 0 -32-32v-48z" fill="#e9eef2" data-original="#e9eef2" style="" class=""/><path xmlns="http://www.w3.org/2000/svg" d="m200 168v-32a16 16 0 0 0 -16-16 16 16 0 0 0 -16 16v32z" fill="#e9eef2" data-original="#e9eef2" style="" class=""/><path xmlns="http://www.w3.org/2000/svg" d="m208 200v-32a16 16 0 0 0 -16-16h-16a16 16 0 0 0 -16 16v32z" fill="#c3c6c7" data-original="#c3c6c7" style=""/><path xmlns="http://www.w3.org/2000/svg" d="m319.999 232h64v32h-64z" fill="#7e8589" data-original="#7e8589" style=""/><path xmlns="http://www.w3.org/2000/svg" d="m136 456h96a16 16 0 0 1 16 16v16a0 0 0 0 1 0 0h-128a0 0 0 0 1 0 0v-16a16 16 0 0 1 16-16z" fill="#e9eef2" data-original="#e9eef2" style="" class=""/><path xmlns="http://www.w3.org/2000/svg" d="m232 408v-176c0-26.51-18.42-48-41.143-48h-13.714c-22.723 0-41.143 21.49-41.143 48v176z" fill="#e9eef2" data-original="#e9eef2" style="" class=""/><path xmlns="http://www.w3.org/2000/svg" d="m136 456h96a16 16 0 0 1 16 16v16a0 0 0 0 1 0 0h-128a0 0 0 0 1 0 0v-16a16 16 0 0 1 16-16z" fill="#c3c6c7" data-original="#c3c6c7" style=""/><path xmlns="http://www.w3.org/2000/svg" d="m304 328v144a16 16 0 0 0 16 16h64a16 16 0 0 0 16-16v-144z" fill="#67c5e0" data-original="#67c5e0" style=""/><path xmlns="http://www.w3.org/2000/svg" d="m256 400h-16v-168c0-20.415-9.639-38.305-24-48.092v-15.908a23.943 23.943 0 0 0 -8-17.869v-14.131a24.039 24.039 0 0 0 -16-22.624v-89.376a8 8 0 0 0 -16 0v89.376a24.039 24.039 0 0 0 -16 22.624v14.131a23.943 23.943 0 0 0 -8 17.869v15.908c-14.361 9.792-24 27.677-24 48.092v168h-16a8 8 0 0 0 0 16h32v32h-8a24.028 24.028 0 0 0 -24 24v16a8 8 0 0 0 8 8h128a8 8 0 0 0 8-8v-16a24.028 24.028 0 0 0 -24-24h-8v-32h32a8 8 0 0 0 0-16zm-80-264a8 8 0 0 1 16 0v8h-16zm-8 32a8.009 8.009 0 0 1 8-8h16a8.009 8.009 0 0 1 8 8v8.987a43.316 43.316 0 0 0 -9.143-.987h-13.714a43.316 43.316 0 0 0 -9.143.987zm-24 232v-16h48a8 8 0 0 0 0-16h-48v-16h24a8 8 0 0 0 0-16h-24v-16h48a8 8 0 0 0 0-16h-48v-16h24a8 8 0 0 0 0-16h-24v-16h48a8 8 0 0 0 0-16h-48v-8c0-22.056 14.868-40 33.143-40h13.714c18.275 0 33.143 17.944 33.143 40v168zm64 16v32h-16v-32zm-32 0v32h-16v-32zm56 48a8.009 8.009 0 0 1 8 8v8h-112v-8a8.009 8.009 0 0 1 8-8z" fill="#000000" data-original="#000000" style=""/><path xmlns="http://www.w3.org/2000/svg" d="m376 288.8v-16.8h8a8 8 0 0 0 8-8v-32a8 8 0 0 0 -8-8h-64a8 8 0 0 0 -8 8v32a8 8 0 0 0 8 8h8v16.8a40.072 40.072 0 0 0 -32 39.2v144a24.028 24.028 0 0 0 24 24h64a24.028 24.028 0 0 0 24-24v-144a40.071 40.071 0 0 0 -32-39.2zm-48-32.8v-16h48v16zm8 48a8 8 0 0 0 8-8v-24h16v24a8 8 0 0 0 8 8 24.039 24.039 0 0 1 22.624 16h-77.249a24.039 24.039 0 0 1 22.625-16zm56 168a8.009 8.009 0 0 1 -8 8h-64a8.009 8.009 0 0 1 -8-8v-136h80z" fill="#000000" data-original="#000000" style=""/></g></svg>
